HIERARCHY
ROOT Hips
{
	OFFSET 0.000000 0.000000 0.000000
	CHANNELS 6 Xposition Yposition Zposition Zrotation Yrotation Xrotation 
	JOINT LHipJoint
	{
		OFFSET 0.000000 0.000000 0.000000
		CHANNELS 3 Zrotation Yrotation Xrotation
		JOINT LeftUpLeg
		{
			OFFSET 1.363060 -1.794630 0.839290
			CHANNELS 3 Zrotation Yrotation Xrotation
			JOINT LeftLeg
			{
				OFFSET 2.448110 -6.726130 0.000000
				CHANNELS 3 Zrotation Yrotation Xrotation
				JOINT LeftFoot
				{
					OFFSET 2.562200 -7.039590 0.000000
					CHANNELS 3 Zrotation Yrotation Xrotation
					JOINT LeftToeBase
					{
						OFFSET 0.157640 -0.433110 2.322550
						CHANNELS 3 Zrotation Yrotation Xrotation
						End Site
						{
							OFFSET 0.000000 0.000000 0.000000
						}
					}
				}
			}
		}
	}
	JOINT RHipJoint
	{
		OFFSET 0.000000 0.000000 0.000000
		CHANNELS 3 Zrotation Yrotation Xrotation
		JOINT RightUpLeg
		{
			OFFSET -1.305520 -1.794630 0.839290
			CHANNELS 3 Zrotation Yrotation Xrotation
			JOINT RightLeg
			{
				OFFSET -2.542530 -6.985550 0.000000
				CHANNELS 3 Zrotation Yrotation Xrotation
				JOINT RightFoot
				{
					OFFSET -2.568260 -7.056230 0.000000
					CHANNELS 3 Zrotation Yrotation Xrotation
					JOINT RightToeBase
					{
						OFFSET -0.164730 -0.452590 2.363150
						CHANNELS 3 Zrotation Yrotation Xrotation
						End Site
						{
							OFFSET 0.000000 0.000000 0.000000
						}
					}
				}
			}
		}
	}
	JOINT LowerBack
	{
		OFFSET 0.000000 0.000000 0.000000
		CHANNELS 3 Zrotation Yrotation Xrotation
		JOINT Spine
		{
			OFFSET 0.028270 2.035590 -0.193380
			CHANNELS 3 Zrotation Yrotation Xrotation
			JOINT Spine1
			{
				OFFSET 0.056720 2.048850 -0.042750
				CHANNELS 3 Zrotation Yrotation Xrotation
				JOINT Neck
				{
					OFFSET 0.000000 0.000000 0.000000
					CHANNELS 3 Zrotation Yrotation Xrotation
					JOINT Neck1
					{
						OFFSET -0.054170 1.746240 0.172020
						CHANNELS 3 Zrotation Yrotation Xrotation
						JOINT Head
						{
							OFFSET 0.104070 1.761360 -0.123970
							CHANNELS 3 Zrotation Yrotation Xrotation
							End Site
							{
								OFFSET 0.000000 0.000000 0.000000
							}
						}
					}
				}
				JOINT LeftShoulder
				{
					OFFSET 0.000000 0.000000 0.000000
					CHANNELS 3 Zrotation Yrotation Xrotation
					JOINT LeftArm
					{
						OFFSET 3.362410 1.200890 -0.311210
						CHANNELS 3 Zrotation Yrotation Xrotation
						JOINT LeftForeArm
						{
							OFFSET 4.983000 -0.000000 -0.000000
							CHANNELS 3 Zrotation Yrotation Xrotation
							JOINT LeftHand
							{
								OFFSET 3.483560 -0.000000 -0.000000
								CHANNELS 3 Zrotation Yrotation Xrotation
								JOINT LeftFingerBase
								{
									OFFSET 0.000000 0.000000 0.000000
									CHANNELS 3 Zrotation Yrotation Xrotation
									JOINT LeftHandIndex1
									{
										OFFSET 0.715260 -0.000000 -0.000000
										CHANNELS 3 Zrotation Yrotation Xrotation
										End Site
										{
											OFFSET 0.000000 0.000000 0.000000
										}
									}
								}
								JOINT LThumb
								{
									OFFSET 0.000000 0.000000 0.000000
									CHANNELS 3 Zrotation Yrotation Xrotation
									End Site
									{
										OFFSET 0.000000 0.000000 0.000000
									}
								}
							}
						}
					}
				}
				JOINT RightShoulder
				{
					OFFSET 0.000000 0.000000 0.000000
					CHANNELS 3 Zrotation Yrotation Xrotation
					JOINT RightArm
					{
						OFFSET -3.136600 1.374050 -0.404650
						CHANNELS 3 Zrotation Yrotation Xrotation
						JOINT RightForeArm
						{
							OFFSET -5.241900 -0.000000 -0.000000
							CHANNELS 3 Zrotation Yrotation Xrotation
							JOINT RightHand
							{
								OFFSET -3.444170 -0.000000 -0.000000
								CHANNELS 3 Zrotation Yrotation Xrotation
								JOINT RightFingerBase
								{
									OFFSET 0.000000 0.000000 0.000000
									CHANNELS 3 Zrotation Yrotation Xrotation
									JOINT RightHandIndex1
									{
										OFFSET -0.622530 -0.000000 -0.000000
										CHANNELS 3 Zrotation Yrotation Xrotation
										End Site
										{
											OFFSET 0.000000 0.000000 0.000000
										}
									}
								}
								JOINT RThumb
								{
									OFFSET 0.000000 0.000000 0.000000
									CHANNELS 3 Zrotation Yrotation Xrotation
									End Site
									{
										OFFSET 0.000000 0.000000 0.000000
									}
								}
							}
						}
					}
				}
			}
		}
	}
}
MOTION
Frames: 10
Frame Time: 0.008333
-11.097587 18.026237 6.421316 -1.121223 71.452520 1.650914 -2.815318 1.031152 1.699129 -5.638843 -2.469258 -18.649169 -0.777002 6.520062 18.048171 -4.414507 20.546104 -8.922585 0.023000 0.978900 2.690800 1.047100 -1.386969 1.196665 18.311779 -14.458055 -12.817061 -1.307645 -8.187808 24.313555 4.840594 -22.440620 -13.190865 -0.101700 -2.056400 5.661600 6.272978 3.062546 11.462583 1.107886 5.065387 0.766243 -4.677953 2.539874 -5.634309 -8.289994 4.873696 -18.556638 -0.393697 10.066340 26.081646 3.348900 2.664300 16.259000 -4.002869 -1.893095 -1.274430 -79.528067 0.290519 64.467078 62.734674 -54.289651 -42.441984 0.610479 -2.216995 -18.843317 23.656448 23.905599 11.098500 -7.125000 0.000000 0.000000 -6.944400 58.294300 -2.265400 3.868182 0.765828 -1.303900 73.519761 1.333641 64.963876 -69.919503 57.326402 -44.427853 0.634950 -0.264359 17.362343 -21.840393 13.889473 -5.685500 7.125000 0.000000 0.000000 3.345100 -15.010000 2.368700 
-11.042854 18.022227 6.374802 0.257767 72.080338 3.278030 -2.913808 0.996328 1.682278 -6.046403 -2.706519 -18.642962 -0.867461 6.377627 17.631792 -4.710363 21.750848 -9.494667 0.023500 0.990100 2.721400 1.024325 -1.401878 1.198978 17.748730 -14.383256 -13.032477 -1.321337 -8.229044 24.391748 5.044341 -23.164602 -13.327348 -0.070800 -1.717000 4.724200 5.547576 3.226949 11.042875 1.087080 5.139236 0.708470 -4.295950 2.583247 -5.560640 -8.536156 4.631978 -18.656314 -0.161137 9.806545 26.150164 3.460200 2.556100 16.320900 -4.008486 -1.873828 -1.286788 -79.652695 0.217805 64.555948 62.512981 -54.224339 -42.234121 0.565276 -2.221960 -18.326336 23.974113 23.517849 11.119900 -7.125000 0.000000 0.000000 -6.392600 57.961100 -2.033200 3.865557 0.783813 -1.302911 73.397000 1.364044 65.033811 -69.944406 57.333650 -44.467464 0.628160 -0.267842 17.256629 -21.369071 14.060437 -5.622800 7.125000 0.000000 0.000000 3.680100 -14.871400 2.617900 
-10.975791 18.007792 6.339216 -2.318701 72.511192 0.467328 -2.840568 1.106452 1.764496 -5.266529 -2.856929 -17.981270 -0.898380 6.271283 17.323793 -4.958509 22.605052 -10.183386 0.063400 1.624700 4.469700 1.031565 -1.411553 1.183591 18.315864 -14.138249 -12.195442 -1.309606 -8.226088 24.405804 5.197898 -23.842679 -13.994004 -0.078900 -1.811500 4.985000 6.008377 3.344083 11.183697 1.293432 5.388675 0.794839 -4.153182 2.693217 -5.491547 -8.729397 4.388926 -18.671875 -0.006018 9.511735 26.114534 3.523100 2.438300 16.306500 -3.998088 -1.859528 -1.285308 -79.676414 0.127227 64.639604 62.468204 -54.213382 -42.201203 0.552026 -2.217005 -18.049024 23.917483 23.292877 11.000300 -7.125000 0.000000 0.000000 -6.354000 57.704800 -1.981500 3.883438 0.796421 -1.298199 73.315061 1.402280 65.006896 -69.977496 57.342638 -44.511548 0.621693 -0.266950 17.298045 -20.991152 14.027467 -5.503700 7.125000 0.000000 0.000000 3.941000 -14.945800 2.798000 
-10.903315 17.983332 6.294908 -1.726695 72.977882 1.237397 -2.875566 1.096967 1.706388 -6.158112 -1.085143 -18.842587 -0.797759 6.244885 16.971447 -5.693017 25.479740 -5.121591 0.511000 -4.582200 -12.720600 1.015522 -1.432409 1.206754 17.926591 -14.113583 -12.160001 -1.314012 -8.236440 24.429516 5.284333 -24.154614 -14.157018 -0.084500 -1.875000 5.160300 5.554927 3.574078 10.726991 1.288629 5.588751 0.767985 -3.896936 2.799724 -5.317065 -8.864536 4.137949 -18.594851 0.031729 9.185242 26.004255 3.507700 2.310500 16.241900 -3.998324 -1.842381 -1.286647 -79.686838 0.087088 64.697983 62.448256 -54.213426 -42.191580 0.558867 -2.208491 -17.976359 23.638417 23.225196 10.824900 -7.125000 0.000000 0.000000 -6.639600 57.560700 -2.048100 3.881308 0.801432 -1.297764 73.315874 1.368704 64.844964 -70.043180 57.358371 -44.579834 0.618513 -0.267830 17.327161 -20.756391 14.060159 -5.450900 7.125000 0.000000 0.000000 4.104900 -14.934200 2.916000 
-10.843469 17.977919 6.259221 -2.456045 73.318468 0.522989 -2.873985 1.111508 1.815363 -5.578307 -2.028652 -18.028612 -0.970089 6.137843 16.966595 -5.085907 23.153498 -11.236082 0.237800 3.138100 8.663400 1.011436 -1.436930 1.176672 17.932237 -13.976038 -11.739880 -1.309747 -8.230027 24.390345 5.430303 -24.671955 -14.150045 -0.050300 -1.447000 3.979700 5.321442 3.813618 10.666709 1.375008 5.870280 0.755584 -3.617464 2.936799 -5.374436 -8.866038 3.970821 -18.448105 -0.071319 8.944359 25.865261 3.413500 2.218200 16.157200 -3.986970 -1.845341 -1.285891 -79.703195 0.110661 64.657769 62.439234 -54.217208 -42.210581 0.571041 -2.182496 -17.963291 22.999451 22.770814 10.316100 -7.125000 0.000000 0.000000 -7.148700 56.915500 -2.094700 3.892720 0.800913 -1.299641 73.305654 1.342720 64.825514 -70.150993 57.375576 -44.683625 0.618412 -0.267487 16.941584 -20.546796 14.206797 -5.448900 7.125000 0.000000 0.000000 4.255300 -14.796400 3.036000 
-10.786431 17.967494 6.231153 -2.949029 73.537867 0.133158 -2.856182 1.094165 1.875863 -5.749006 -0.791281 -18.338624 -1.016093 6.069130 16.869591 -4.620248 21.617927 -13.003643 1.000400 6.364800 17.846700 1.003646 -1.435942 1.160805 17.940982 -13.577904 -11.442677 -1.323336 -8.267137 24.479160 5.615404 -25.322916 -14.184738 -0.020400 -0.921400 2.532400 4.872923 4.082616 10.511283 1.445929 6.148045 0.727800 -3.247303 3.079651 -5.418004 -8.625924 3.966263 -18.316588 -0.404498 8.870980 25.645367 3.190700 2.199200 16.042500 -3.963993 -1.869559 -1.279607 -79.603529 0.147381 64.495043 62.584756 -54.267490 -42.354080 0.580022 -2.164266 -17.820190 22.573998 22.579749 10.022500 -7.125000 0.000000 0.000000 -7.538200 56.603500 -2.152700 3.911470 0.777054 -1.305824 73.283058 1.425313 65.095313 -70.297813 57.396861 -44.823368 0.625761 -0.254890 16.509994 -20.665008 13.989183 -5.397600 7.125000 0.000000 0.000000 4.162300 -15.024100 2.948900 
-10.720370 17.961078 6.195065 -2.903492 73.830980 0.219522 -2.844515 1.090705 1.898658 -6.334437 0.966228 -18.906641 -0.970082 6.076999 16.863967 -4.650100 21.604141 -11.913748 0.893600 6.025200 16.857700 0.992961 -1.451307 1.160980 17.723457 -13.354091 -11.077613 -1.316518 -8.256170 24.429331 5.762863 -25.832851 -14.245634 -0.010700 -0.667200 1.833500 4.424014 4.329047 10.338901 1.447659 6.394427 0.715603 -3.014811 3.209272 -5.400163 -8.396093 3.893066 -18.282556 -0.637511 8.700052 25.495028 3.007400 2.145600 15.990000 -3.950016 -1.884873 -1.272857 -79.450825 0.121534 64.388089 62.702090 -54.305857 -42.450452 0.580806 -2.162819 -17.676176 22.547860 22.698160 10.050100 -7.125000 0.000000 0.000000 -7.623800 56.718400 -2.198600 3.922791 0.762503 -1.310581 73.377167 1.486757 65.160114 -70.302948 57.395935 -44.833527 0.627745 -0.251287 16.586051 -20.735840 13.874964 -5.372500 7.125000 0.000000 0.000000 4.107800 -15.142900 2.899700 
-10.642681 17.962482 6.146347 -2.430518 74.259519 0.772953 -2.861535 1.086948 1.907545 -6.944162 2.223404 -19.316894 -0.922892 6.081951 16.840886 -4.670960 21.572622 -10.289820 0.654100 5.173300 14.403400 0.977927 -1.471607 1.166377 17.321156 -13.261266 -10.776658 -1.310677 -8.244128 24.381829 5.849750 -26.132047 -14.343525 -0.003900 -0.404300 1.111000 4.020693 4.539302 10.022233 1.414113 6.594111 0.694559 -2.866974 3.316159 -5.308796 -8.238895 3.726625 -18.257705 -0.744482 8.414289 25.425997 2.879000 2.048800 15.979100 -3.946931 -1.883707 -1.274044 -79.490369 0.144873 64.236132 62.634530 -54.290875 -42.394689 0.577764 -2.153605 -17.461412 22.302951 22.506241 9.853800 -7.125000 0.000000 0.000000 -7.807400 56.454000 -2.202000 3.925746 0.756777 -1.311797 73.466018 1.488390 65.104276 -70.332574 57.403236 -44.862871 0.627114 -0.256579 16.812901 -20.705887 13.988368 -5.408200 7.125000 0.000000 0.000000 4.132800 -15.023300 2.928000 
-10.560682 17.965288 6.090311 -1.516857 74.737379 1.765335 -2.900013 1.059128 1.898063 -7.713026 3.409167 -19.833262 -0.886798 6.093761 16.842072 -4.628102 21.398293 -8.881798 0.547800 4.741700 13.173400 0.959690 -1.490039 1.177001 16.741912 -13.052622 -10.369646 -1.295003 -8.211559 24.277932 5.925227 -26.388993 -14.478610 -0.003300 -0.371000 1.019400 3.573671 4.684134 9.637447 1.374188 6.700387 0.701500 -2.682250 3.380975 -5.129105 -8.253244 3.605144 -18.250691 -0.741649 8.237853 25.332613 2.850800 1.987300 15.935300 -3.949130 -1.872725 -1.276358 -79.549661 0.106586 63.961473 62.576354 -54.279743 -42.344761 0.574128 -2.145534 -17.400484 22.143565 22.267827 9.686600 -7.125000 0.000000 0.000000 -7.873100 56.162600 -2.165000 3.925915 0.757618 -1.308539 73.540638 1.624230 65.107144 -70.307646 57.405444 -44.850373 0.621091 -0.266858 17.189972 -20.447911 14.205312 -5.419700 7.125000 0.000000 0.000000 4.320700 -14.813200 3.081400 
-10.481489 17.967995 6.035277 -0.779353 75.188923 2.491125 -2.938767 1.044395 1.890873 -8.371553 4.265588 -20.144505 -0.850579 6.110772 16.857577 -4.611907 21.377321 -7.454378 0.424100 4.179900 11.583300 0.942225 -1.509279 1.193402 16.157119 -12.662823 -9.719610 -1.265743 -8.163393 24.145582 5.919417 -26.417249 -14.889291 -0.027900 -1.077400 2.961800 3.154553 4.818496 9.412077 1.359907 6.809617 0.728307 -2.460889 3.442832 -5.002848 -8.452265 3.465363 -18.271870 -0.609131 8.090270 25.259984 2.924400 1.926200 15.895700 -3.949354 -1.854945 -1.274968 -79.424487 0.068409 63.751214 62.764454 -54.340189 -42.510352 0.573864 -2.143618 -17.546784 22.252208 22.213491 9.720200 -7.125000 0.000000 0.000000 -7.729000 56.128800 -2.118700 3.924989 0.768469 -1.304918 73.577160 1.825609 65.058218 -70.225994 57.397711 -44.794918 0.607951 -0.276718 17.657188 -19.906382 14.355465 -5.324000 7.125000 0.000000 0.000000 4.702900 -14.702400 3.366900 
